<svg width="49" height="24" viewBox="0 0 49 24" fill="none" xmlns="http://www.w3.org/2000/svg">
<g clip-path="url(#clip0)">
<path d="M11.6655 11.9253L19.6205 7.32167C20.5018 6.79259 21.1402 5.93765 21.3981 4.9412C21.6561 3.94475 21.5129 2.88662 20.9995 1.99499C20.486 1.10336 19.6435 0.449663 18.6534 0.174859C17.6634 -0.0999459 16.6053 0.0261603 15.7072 0.525984L1.95813 8.48024L11.6655 11.9253Z" fill="#EA4335"/>
<path d="M17.6614 23.7572C18.5233 23.7572 19.3612 23.4723 20.045 22.9466C20.7288 22.4208 21.2205 21.6837 21.4437 20.8495C21.667 20.0153 21.6093 19.1306 21.2797 18.3325C20.9501 17.5345 20.3669 16.8677 19.6207 16.4356L5.8731 8.48033C5.42778 8.22274 4.93619 8.05557 4.4264 7.98836C3.91662 7.92115 3.39861 7.95521 2.90196 8.08861C2.40531 8.22202 1.93974 8.45214 1.53184 8.76584C1.12394 9.07954 0.781696 9.47068 0.524643 9.91692C0.267591 10.3632 0.100767 10.8558 0.0336972 11.3666C-0.0333729 11.8775 0.00062394 12.3966 0.133747 12.8943C0.26687 13.3919 0.496511 13.8585 0.80956 14.2672C1.12261 14.676 1.51294 15.0189 1.95825 15.2765L15.7073 23.2313C16.3012 23.5758 16.9753 23.7572 17.6614 23.7572Z" fill="#4285F4"/>
<path d="M31.3401 23.7571C32.0263 23.7571 32.7004 23.5757 33.2943 23.2312L47.0413 15.2764L37.4572 11.7609L29.3769 16.4355C28.6303 16.8678 28.047 17.5349 27.7174 18.3334C27.3879 19.1318 27.3306 20.0169 27.5543 20.8514C27.7781 21.6858 28.2704 22.4229 28.9549 22.9483C29.6395 23.4737 30.4779 23.758 31.3401 23.7571Z" fill="#FBBC04"/>
<path d="M45.0801 15.8028C45.9427 15.8041 46.7816 15.5199 47.4665 14.9943C48.1513 14.4687 48.6438 13.7312 48.8674 12.8964C49.091 12.0615 49.0332 11.176 48.703 10.3774C48.3728 9.57888 47.7887 8.91193 47.0414 8.48021L33.2923 0.525953C32.3932 0.00934638 31.3264 -0.128973 30.3257 0.141315C29.325 0.411602 28.4721 1.06844 27.9539 1.96786C27.4357 2.86728 27.2945 3.93589 27.5612 4.93946C27.828 5.94303 28.4809 6.79968 29.3769 7.32164L43.1265 15.2764C43.7202 15.621 44.3941 15.8026 45.0801 15.8028Z" fill="#0F9D58"/>
</g>
<defs>
<clipPath id="clip0">
<rect width="49" height="23.7576" fill="white"/>
</clipPath>
</defs>
</svg>
